# xmcd
#
# Track frame offsets:
#	150
#	15678
#	35889
#	53772
#	67854
#	85022
#	99922
#	114332
#	129450
#	144040
#
# Disc length: 2064 seconds
# Revision: 0
# Processed by: cddbd v1.5.2PL0 Copyright (c) Steve Scherf et al.
# Submitted via: dBpowerAMP V12.0
#
DISCID=74080e0a
DTITLE=Keith Bryant - Traditions Sure Run Deep
DYEAR=2001
DGENRE=
TTITLE0=N-A-S-C-A-R
TTITLE1=Me and Dad
TTITLE2=Drivers In Heaven
TTITLE3=The Chevys and the Fords
TTITLE4=Traditions Sure Run Deep
TTITLE5=Ballad of the Old School Bus
TTITLE6=The Checkered Flag Is Gold
TTITLE7=Blood, Sweat and Gears
TTITLE8=Drivers' Prayer
TTITLE9=Sons Of Thunder
EXTD=
EXTT0=
EXTT1=
EXTT2=
EXTT3=
EXTT4=
EXTT5=
EXTT6=
EXTT7=
EXTT8=
EXTT9=
PLAYORDER=
